<?xml version="1.0" standalone="no"?>
<!DOCTYPE svg PUBLIC "-//W3C//DTD SVG 20010904//EN"
 "http://www.w3.org/TR/2001/REC-SVG-20010904/DTD/svg10.dtd">
<svg version="1.0" xmlns="http://www.w3.org/2000/svg"
 width="320.000000pt" height="320.000000pt" viewBox="0 0 320.000000 320.000000"
 preserveAspectRatio="xMidYMid meet">

<g transform="translate(0.000000,320.000000) scale(0.100000,-0.100000)"
fill="#aab4c3" stroke="none">
<path d="M1335 3121 c-496 -89 -903 -387 -1123 -826 -61 -121 -87 -192 -124
-332 -33 -128 -33 -128 -33 -368 1 -229 2 -245 28 -348 82 -319 213 -549 441
-770 247 -240 578 -390 928 -419 474 -40 912 120 1243 456 226 229 362 499
427 851 7 40 13 141 13 235 -1 184 -22 317 -77 485 -158 477 -551 855 -1038
997 -202 59 -483 74 -685 39z m-312 -657 c178 -39 307 -140 390 -302 69 -136
82 -198 82 -392 -1 -101 -6 -182 -13 -207 l-13 -43 -473 0 -474 0 13 -58 c25
-120 87 -201 184 -239 43 -17 106 -18 896 -21 625 -3 869 0 920 8 78 14 170
52 239 99 24 17 47 31 50 31 5 0 71 -88 159 -212 l47 -66 -63 -51 c-79 -66
-222 -137 -312 -156 -59 -12 -223 -15 -1015 -15 -1060 1 -1006 -3 -1165 75
-185 89 -319 281 -365 525 -6 30 -11 129 -11 220 0 233 33 358 137 516 97 148
225 242 388 284 93 25 297 27 399 4z m1570 0 c176 -39 307 -145 391 -314 65
-133 80 -219 73 -420 -4 -85 -9 -167 -13 -182 l-6 -28 -690 0 -690 0 5 163 c3
124 10 181 26 242 45 163 148 332 254 417 67 53 176 105 258 122 90 20 303 20
392 0z"/>
<path d="M763 2130 c-61 -9 -130 -46 -159 -87 -30 -41 -62 -123 -68 -171 l-5
-42 285 0 284 0 0 43 c0 59 -23 130 -54 172 -51 66 -169 102 -283 85z"/>
<path d="M2320 2128 c-63 -10 -117 -42 -155 -92 -28 -37 -65 -140 -65 -182 l0
-24 280 0 280 0 1 38 c3 79 -15 135 -57 182 -63 69 -166 98 -284 78z"/>
</g>
</svg>
